<svg xmlns="http://www.w3.org/2000/svg" width="2000" height="1600" viewBox="0 0 2000 1600">
  <rect width="100%" height="100%" fill="#F3F6F4"/>
  <rect x="70" y="70" width="1860" height="1460" rx="34" fill="#FFFFFF" stroke="#D9E2EC" stroke-width="3"/>
  <text x="120" y="165" font-family="Inter, Arial, sans-serif" font-size="76" font-weight="800" fill="#102A43">Meal Planner Studio</text>
  <text x="120" y="230" font-family="Inter, Arial, sans-serif" font-size="34" fill="#475569">Plan meals, generate groceries, and see calories + cost in one workbook.</text>
  <rect x="1360" y="130" width="500" height="70" rx="35" fill="#5C7A52"/><text x="1610" y="176" text-anchor="middle" font-size="28" font-weight="700" fill="#fff">Google Sheets first</text>
  <g font-family="Inter, Arial, sans-serif"><rect x="120" y="300" width="780" height="340" rx="18" fill="#FFFFFF" stroke="#D9E2EC" stroke-width="3"/><text x="154" y="358" font-size="36" font-weight="700" fill="#1F6F8B">Dashboard</text><text x="154" y="415" font-size="28" fill="#102A43">Weekly calories: sample state</text><text x="154" y="461" font-size="28" fill="#102A43">Estimated food cost: visible</text><text x="154" y="507" font-size="28" fill="#102A43">Grocery items + pantry gaps</text><rect x="1000" y="300" width="780" height="340" rx="18" fill="#FFFFFF" stroke="#D9E2EC" stroke-width="3"/><text x="1034" y="358" font-size="36" font-weight="700" fill="#1F6F8B">Weekly Planner</text><text x="1034" y="415" font-size="28" fill="#102A43">Breakfast, lunch, dinner, snack</text><text x="1034" y="461" font-size="28" fill="#102A43">Servings and notes</text><text x="1034" y="507" font-size="28" fill="#102A43">Dropdown meal choices</text><rect x="120" y="720" width="780" height="340" rx="18" fill="#FFFFFF" stroke="#D9E2EC" stroke-width="3"/><text x="154" y="778" font-size="36" font-weight="700" fill="#1F6F8B">Grocery List</text><text x="154" y="835" font-size="28" fill="#102A43">Buy qty from pantry context</text><text x="154" y="881" font-size="28" fill="#102A43">Categories and checked status</text><text x="154" y="927" font-size="28" fill="#102A43">No copy/paste finalization</text><rect x="1000" y="720" width="780" height="340" rx="18" fill="#FFFFFF" stroke="#D9E2EC" stroke-width="3"/><text x="1034" y="778" font-size="36" font-weight="700" fill="#1F6F8B">Compatibility</text><text x="1034" y="835" font-size="28" fill="#102A43">Google Sheets primary</text><text x="1034" y="881" font-size="28" fill="#102A43">Excel export gated by QA</text><text x="1034" y="927" font-size="28" fill="#102A43">No external-data warnings</text></g>
  <text x="120" y="1460" font-family="Inter, Arial, sans-serif" font-size="26" fill="#475569">Real workbook surfaces from Meal Planner Studio</text>
</svg>