<svg xmlns="http://www.w3.org/2000/svg" width="2000" height="1600" viewBox="0 0 2000 1600">
  <rect width="100%" height="100%" fill="#F3F6F4"/>
  <rect x="70" y="70" width="1860" height="1460" rx="34" fill="#FFFFFF" stroke="#D9E2EC" stroke-width="3"/>
  <text x="120" y="165" font-family="Inter, Arial, sans-serif" font-size="76" font-weight="800" fill="#102A43">Weekly planning that turns into a list</text>
  <text x="120" y="230" font-family="Inter, Arial, sans-serif" font-size="34" fill="#475569">Choose meals once, then review the shopping output.</text>
  
  <g font-family="Inter, Arial, sans-serif"><rect x="120" y="300" width="780" height="340" rx="18" fill="#FFFFFF" stroke="#D9E2EC" stroke-width="3"/><text x="154" y="358" font-size="36" font-weight="700" fill="#1F6F8B">Planner controls</text><text x="154" y="415" font-size="28" fill="#102A43">Meal dropdowns</text><text x="154" y="461" font-size="28" fill="#102A43">Servings per day</text><text x="154" y="507" font-size="28" fill="#102A43">Sample week included</text><rect x="1000" y="300" width="780" height="340" rx="18" fill="#FFFFFF" stroke="#D9E2EC" stroke-width="3"/><text x="1034" y="358" font-size="36" font-weight="700" fill="#1F6F8B">Outputs</text><text x="1034" y="415" font-size="28" fill="#102A43">Daily calories</text><text x="1034" y="461" font-size="28" fill="#102A43">Daily cost</text><text x="1034" y="507" font-size="28" fill="#102A43">Dashboard totals</text><rect x="120" y="720" width="780" height="340" rx="18" fill="#FFFFFF" stroke="#D9E2EC" stroke-width="3"/><text x="154" y="778" font-size="36" font-weight="700" fill="#1F6F8B">Buyer edit areas</text><text x="154" y="835" font-size="28" fill="#102A43">Settings</text><text x="154" y="881" font-size="28" fill="#102A43">Recipes</text><text x="154" y="927" font-size="28" fill="#102A43">Pantry</text><text x="154" y="973" font-size="28" fill="#102A43">Weekly choices</text><rect x="1000" y="720" width="780" height="340" rx="18" fill="#FFFFFF" stroke="#D9E2EC" stroke-width="3"/><text x="1034" y="778" font-size="36" font-weight="700" fill="#1F6F8B">Formula safety</text><text x="1034" y="835" font-size="28" fill="#102A43">Marked cells</text><text x="1034" y="881" font-size="28" fill="#102A43">Formula/output separation</text><text x="1034" y="927" font-size="28" fill="#102A43">Reset guidance included</text></g>
  <text x="120" y="1460" font-family="Inter, Arial, sans-serif" font-size="26" fill="#475569">Real workbook surfaces from Meal Planner Studio</text>
</svg>