<svg xmlns="http://www.w3.org/2000/svg" width="2000" height="1600" viewBox="0 0 2000 1600">
  <rect width="100%" height="100%" fill="#F3F6F4"/>
  <rect x="70" y="70" width="1860" height="1460" rx="34" fill="#FFFFFF" stroke="#D9E2EC" stroke-width="3"/>
  <text x="120" y="165" font-family="Inter, Arial, sans-serif" font-size="76" font-weight="800" fill="#102A43">Calories and cost together</text>
  <text x="120" y="230" font-family="Inter, Arial, sans-serif" font-size="34" fill="#475569">The dashboard supports the decision buyers actually make.</text>
  
  <g font-family="Inter, Arial, sans-serif"><rect x="120" y="300" width="780" height="340" rx="18" fill="#FFFFFF" stroke="#D9E2EC" stroke-width="3"/><text x="154" y="358" font-size="36" font-weight="700" fill="#1F6F8B">Calories</text><text x="154" y="415" font-size="28" fill="#102A43">kcal by day</text><text x="154" y="461" font-size="28" fill="#102A43">Weekly target</text><text x="154" y="507" font-size="28" fill="#102A43">Sample state visible</text><rect x="1000" y="300" width="780" height="340" rx="18" fill="#FFFFFF" stroke="#D9E2EC" stroke-width="3"/><text x="1034" y="358" font-size="36" font-weight="700" fill="#1F6F8B">Cost</text><text x="1034" y="415" font-size="28" fill="#102A43">USD by day</text><text x="1034" y="461" font-size="28" fill="#102A43">Weekly budget</text><text x="1034" y="507" font-size="28" fill="#102A43">Clear threshold</text><rect x="120" y="720" width="780" height="340" rx="18" fill="#FFFFFF" stroke="#D9E2EC" stroke-width="3"/><text x="154" y="778" font-size="36" font-weight="700" fill="#1F6F8B">Grocery categories</text><text x="154" y="835" font-size="28" fill="#102A43">Item counts</text><text x="154" y="881" font-size="28" fill="#102A43">Shopping prep</text><text x="154" y="927" font-size="28" fill="#102A43">Readable chart labels</text><rect x="1000" y="720" width="780" height="340" rx="18" fill="#FFFFFF" stroke="#D9E2EC" stroke-width="3"/><text x="1034" y="778" font-size="36" font-weight="700" fill="#1F6F8B">No overclaiming</text><text x="1034" y="835" font-size="28" fill="#102A43">Estimates only</text><text x="1034" y="881" font-size="28" fill="#102A43">Not nutrition advice</text><text x="1034" y="927" font-size="28" fill="#102A43">Not live grocery pricing</text></g>
  <text x="120" y="1460" font-family="Inter, Arial, sans-serif" font-size="26" fill="#475569">Real workbook surfaces from Meal Planner Studio</text>
</svg>