<svg xmlns="http://www.w3.org/2000/svg" width="2000" height="1600" viewBox="0 0 2000 1600">
  <rect width="100%" height="100%" fill="#F3F6F4"/>
  <rect x="70" y="70" width="1860" height="1460" rx="34" fill="#FFFFFF" stroke="#D9E2EC" stroke-width="3"/>
  <text x="120" y="165" font-family="Inter, Arial, sans-serif" font-size="76" font-weight="800" fill="#102A43">Clear delivery and compatibility</text>
  <text x="120" y="230" font-family="Inter, Arial, sans-serif" font-size="34" fill="#475569">Direct access, scoped support, and buyer-safe limitations.</text>
  <rect x="1360" y="130" width="500" height="70" rx="35" fill="#5C7A52"/><text x="1610" y="176" text-anchor="middle" font-size="28" font-weight="700" fill="#fff">No recurring fee</text>
  <g font-family="Inter, Arial, sans-serif"><rect x="120" y="300" width="780" height="340" rx="18" fill="#FFFFFF" stroke="#D9E2EC" stroke-width="3"/><text x="154" y="358" font-size="36" font-weight="700" fill="#1F6F8B">Delivery</text><text x="154" y="415" font-size="28" fill="#102A43">Workbook file</text><text x="154" y="461" font-size="28" fill="#102A43">Quick start guide</text><text x="154" y="507" font-size="28" fill="#102A43">No form funnel</text><rect x="1000" y="300" width="780" height="340" rx="18" fill="#FFFFFF" stroke="#D9E2EC" stroke-width="3"/><text x="1034" y="358" font-size="36" font-weight="700" fill="#1F6F8B">Compatibility</text><text x="1034" y="415" font-size="28" fill="#102A43">Google Sheets primary</text><text x="1034" y="461" font-size="28" fill="#102A43">Excel verified before claim</text><text x="1034" y="507" font-size="28" fill="#102A43">Mobile limited for setup</text><rect x="120" y="720" width="780" height="340" rx="18" fill="#FFFFFF" stroke="#D9E2EC" stroke-width="3"/><text x="154" y="778" font-size="36" font-weight="700" fill="#1F6F8B">Recovery</text><text x="154" y="835" font-size="28" fill="#102A43">Keep clean original</text><text x="154" y="881" font-size="28" fill="#102A43">Make working copy</text><text x="154" y="927" font-size="28" fill="#102A43">Restore sample state</text><rect x="1000" y="720" width="780" height="340" rx="18" fill="#FFFFFF" stroke="#D9E2EC" stroke-width="3"/><text x="1034" y="778" font-size="36" font-weight="700" fill="#1F6F8B">Support scope</text><text x="1034" y="835" font-size="28" fill="#102A43">Access/setup help</text><text x="1034" y="881" font-size="28" fill="#102A43">No custom formulas</text><text x="1034" y="927" font-size="28" fill="#102A43">No nutrition advice</text></g>
  <text x="120" y="1460" font-family="Inter, Arial, sans-serif" font-size="26" fill="#475569">Real workbook surfaces from Meal Planner Studio</text>
</svg>